<mxfile host="app.diagrams.net" modified="2024-06-09T01:22:29.650Z" agent="Mozilla/5.0 (Windows NT 10.0; Win64; x64) AppleWebKit/537.36 (KHTML, like Gecko) Chrome/125.0.0.0 Safari/537.36" etag="0W5UNndRLIYePjOl0tSc" version="24.4.13" type="github">
  <diagram id="R2lEEEUBdFMjLlhIrx00" name="Page-1">
    <mxGraphModel dx="1563" dy="559" grid="1" gridSize="10" guides="1" tooltips="1" connect="1" arrows="1" fold="1" page="1" pageScale="1" pageWidth="850" pageHeight="1100" math="0" shadow="0" extFonts="Permanent Marker^https://fonts.googleapis.com/css?family=Permanent+Marker">
      <root>
        <mxCell id="0" />
        <mxCell id="1" parent="0" />
        <mxCell id="zl25aqcJ3N6k3by6cPEg-2" value="User" style="shape=table;startSize=20;container=1;collapsible=1;childLayout=tableLayout;fixedRows=1;rowLines=0;fontStyle=1;align=center;resizeLast=1;" vertex="1" parent="1">
          <mxGeometry x="294.5" y="640" width="250" height="150" as="geometry" />
        </mxCell>
        <mxCell id="zl25aqcJ3N6k3by6cPEg-3" value="" style="shape=partialRectangle;collapsible=0;dropTarget=0;pointerEvents=0;fillColor=none;points=[[0,0.5],[1,0.5]];portConstraint=eastwest;top=0;left=0;right=0;bottom=1;" vertex="1" parent="zl25aqcJ3N6k3by6cPEg-2">
          <mxGeometry y="20" width="250" height="20" as="geometry" />
        </mxCell>
        <mxCell id="zl25aqcJ3N6k3by6cPEg-4" value="" style="shape=partialRectangle;overflow=hidden;connectable=0;fillColor=none;top=0;left=0;bottom=0;right=0;fontStyle=1;" vertex="1" parent="zl25aqcJ3N6k3by6cPEg-3">
          <mxGeometry width="30" height="20" as="geometry">
            <mxRectangle width="30" height="20" as="alternateBounds" />
          </mxGeometry>
        </mxCell>
        <mxCell id="zl25aqcJ3N6k3by6cPEg-5" value="User: username&#xa;relation: one to one" style="shape=partialRectangle;overflow=hidden;connectable=0;fillColor=none;top=0;left=0;bottom=0;right=0;align=left;spacingLeft=6;fontStyle=5;" vertex="1" parent="zl25aqcJ3N6k3by6cPEg-3">
          <mxGeometry x="30" width="220" height="20" as="geometry">
            <mxRectangle width="220" height="20" as="alternateBounds" />
          </mxGeometry>
        </mxCell>
        <mxCell id="zl25aqcJ3N6k3by6cPEg-6" value="" style="shape=partialRectangle;collapsible=0;dropTarget=0;pointerEvents=0;fillColor=none;points=[[0,0.5],[1,0.5]];portConstraint=eastwest;top=0;left=0;right=0;bottom=0;" vertex="1" parent="zl25aqcJ3N6k3by6cPEg-2">
          <mxGeometry y="40" width="250" height="110" as="geometry" />
        </mxCell>
        <mxCell id="zl25aqcJ3N6k3by6cPEg-7" value="" style="shape=partialRectangle;overflow=hidden;connectable=0;fillColor=none;top=0;left=0;bottom=0;right=0;" vertex="1" parent="zl25aqcJ3N6k3by6cPEg-6">
          <mxGeometry width="30" height="110" as="geometry">
            <mxRectangle width="30" height="110" as="alternateBounds" />
          </mxGeometry>
        </mxCell>
        <mxCell id="zl25aqcJ3N6k3by6cPEg-8" value="loggedIn: boolean&#xa;username: string&#xa;email: string&#xa;userId: integer&#xa;profileImage: jpg/image&#xa;board_id: integer" style="shape=partialRectangle;overflow=hidden;connectable=0;fillColor=none;top=0;left=0;bottom=0;right=0;align=left;spacingLeft=6;" vertex="1" parent="zl25aqcJ3N6k3by6cPEg-6">
          <mxGeometry x="30" width="220" height="110" as="geometry">
            <mxRectangle width="220" height="110" as="alternateBounds" />
          </mxGeometry>
        </mxCell>
        <mxCell id="zl25aqcJ3N6k3by6cPEg-9" value="Board" style="shape=table;startSize=20;container=1;collapsible=1;childLayout=tableLayout;fixedRows=1;rowLines=0;fontStyle=1;align=center;resizeLast=1;" vertex="1" parent="1">
          <mxGeometry x="294.5" y="470" width="255.5" height="100" as="geometry" />
        </mxCell>
        <mxCell id="zl25aqcJ3N6k3by6cPEg-10" value="" style="shape=partialRectangle;collapsible=0;dropTarget=0;pointerEvents=0;fillColor=none;points=[[0,0.5],[1,0.5]];portConstraint=eastwest;top=0;left=0;right=0;bottom=1;" vertex="1" parent="zl25aqcJ3N6k3by6cPEg-9">
          <mxGeometry y="20" width="255.5" height="20" as="geometry" />
        </mxCell>
        <mxCell id="zl25aqcJ3N6k3by6cPEg-11" value="" style="shape=partialRectangle;overflow=hidden;connectable=0;fillColor=none;top=0;left=0;bottom=0;right=0;fontStyle=1;" vertex="1" parent="zl25aqcJ3N6k3by6cPEg-10">
          <mxGeometry width="30" height="20" as="geometry">
            <mxRectangle width="30" height="20" as="alternateBounds" />
          </mxGeometry>
        </mxCell>
        <mxCell id="zl25aqcJ3N6k3by6cPEg-12" value="" style="shape=partialRectangle;overflow=hidden;connectable=0;fillColor=none;top=0;left=0;bottom=0;right=0;align=left;spacingLeft=6;fontStyle=5;" vertex="1" parent="zl25aqcJ3N6k3by6cPEg-10">
          <mxGeometry x="30" width="225.5" height="20" as="geometry">
            <mxRectangle width="225.5" height="20" as="alternateBounds" />
          </mxGeometry>
        </mxCell>
        <mxCell id="zl25aqcJ3N6k3by6cPEg-13" value="" style="shape=partialRectangle;collapsible=0;dropTarget=0;pointerEvents=0;fillColor=none;points=[[0,0.5],[1,0.5]];portConstraint=eastwest;top=0;left=0;right=0;bottom=0;" vertex="1" parent="zl25aqcJ3N6k3by6cPEg-9">
          <mxGeometry y="40" width="255.5" height="60" as="geometry" />
        </mxCell>
        <mxCell id="zl25aqcJ3N6k3by6cPEg-14" value="" style="shape=partialRectangle;overflow=hidden;connectable=0;fillColor=none;top=0;left=0;bottom=0;right=0;" vertex="1" parent="zl25aqcJ3N6k3by6cPEg-13">
          <mxGeometry width="30" height="60" as="geometry">
            <mxRectangle width="30" height="60" as="alternateBounds" />
          </mxGeometry>
        </mxCell>
        <mxCell id="zl25aqcJ3N6k3by6cPEg-15" value="board_id: integer&#xa;item_id: integer&#xa;boardname: string" style="shape=partialRectangle;overflow=hidden;connectable=0;fillColor=none;top=0;left=0;bottom=0;right=0;align=left;spacingLeft=6;" vertex="1" parent="zl25aqcJ3N6k3by6cPEg-13">
          <mxGeometry x="30" width="225.5" height="60" as="geometry">
            <mxRectangle width="225.5" height="60" as="alternateBounds" />
          </mxGeometry>
        </mxCell>
        <mxCell id="zl25aqcJ3N6k3by6cPEg-43" value="" style="fontSize=12;html=1;endArrow=ERmany;startArrow=ERmany;rounded=0;" edge="1" parent="1">
          <mxGeometry width="100" height="100" relative="1" as="geometry">
            <mxPoint x="420.66" y="230" as="sourcePoint" />
            <mxPoint x="420.86" y="160" as="targetPoint" />
            <Array as="points">
              <mxPoint x="420.66" y="190" />
            </Array>
          </mxGeometry>
        </mxCell>
        <mxCell id="zl25aqcJ3N6k3by6cPEg-44" value="Note" style="shape=table;startSize=30;container=1;collapsible=1;childLayout=tableLayout;fixedRows=1;rowLines=0;fontStyle=1;align=center;resizeLast=1;html=1;" vertex="1" parent="1">
          <mxGeometry x="294.5" width="260" height="160" as="geometry" />
        </mxCell>
        <mxCell id="zl25aqcJ3N6k3by6cPEg-45" value="" style="shape=tableRow;horizontal=0;startSize=0;swimlaneHead=0;swimlaneBody=0;fillColor=none;collapsible=0;dropTarget=0;points=[[0,0.5],[1,0.5]];portConstraint=eastwest;top=0;left=0;right=0;bottom=1;" vertex="1" parent="zl25aqcJ3N6k3by6cPEg-44">
          <mxGeometry y="30" width="260" height="30" as="geometry" />
        </mxCell>
        <mxCell id="zl25aqcJ3N6k3by6cPEg-46" value="" style="shape=partialRectangle;connectable=0;fillColor=none;top=0;left=0;bottom=0;right=0;fontStyle=1;overflow=hidden;whiteSpace=wrap;html=1;" vertex="1" parent="zl25aqcJ3N6k3by6cPEg-45">
          <mxGeometry width="30" height="30" as="geometry">
            <mxRectangle width="30" height="30" as="alternateBounds" />
          </mxGeometry>
        </mxCell>
        <mxCell id="zl25aqcJ3N6k3by6cPEg-47" value="" style="shape=partialRectangle;connectable=0;fillColor=none;top=0;left=0;bottom=0;right=0;align=left;spacingLeft=6;fontStyle=5;overflow=hidden;whiteSpace=wrap;html=1;" vertex="1" parent="zl25aqcJ3N6k3by6cPEg-45">
          <mxGeometry x="30" width="230" height="30" as="geometry">
            <mxRectangle width="230" height="30" as="alternateBounds" />
          </mxGeometry>
        </mxCell>
        <mxCell id="zl25aqcJ3N6k3by6cPEg-48" value="" style="shape=tableRow;horizontal=0;startSize=0;swimlaneHead=0;swimlaneBody=0;fillColor=none;collapsible=0;dropTarget=0;points=[[0,0.5],[1,0.5]];portConstraint=eastwest;top=0;left=0;right=0;bottom=0;" vertex="1" parent="zl25aqcJ3N6k3by6cPEg-44">
          <mxGeometry y="60" width="260" height="30" as="geometry" />
        </mxCell>
        <mxCell id="zl25aqcJ3N6k3by6cPEg-49" value="" style="shape=partialRectangle;connectable=0;fillColor=none;top=0;left=0;bottom=0;right=0;editable=1;overflow=hidden;whiteSpace=wrap;html=1;" vertex="1" parent="zl25aqcJ3N6k3by6cPEg-48">
          <mxGeometry width="30" height="30" as="geometry">
            <mxRectangle width="30" height="30" as="alternateBounds" />
          </mxGeometry>
        </mxCell>
        <mxCell id="zl25aqcJ3N6k3by6cPEg-50" value="note_id: integer" style="shape=partialRectangle;connectable=0;fillColor=none;top=0;left=0;bottom=0;right=0;align=left;spacingLeft=6;overflow=hidden;whiteSpace=wrap;html=1;" vertex="1" parent="zl25aqcJ3N6k3by6cPEg-48">
          <mxGeometry x="30" width="230" height="30" as="geometry">
            <mxRectangle width="230" height="30" as="alternateBounds" />
          </mxGeometry>
        </mxCell>
        <mxCell id="zl25aqcJ3N6k3by6cPEg-51" value="" style="shape=tableRow;horizontal=0;startSize=0;swimlaneHead=0;swimlaneBody=0;fillColor=none;collapsible=0;dropTarget=0;points=[[0,0.5],[1,0.5]];portConstraint=eastwest;top=0;left=0;right=0;bottom=0;" vertex="1" parent="zl25aqcJ3N6k3by6cPEg-44">
          <mxGeometry y="90" width="260" height="30" as="geometry" />
        </mxCell>
        <mxCell id="zl25aqcJ3N6k3by6cPEg-52" value="" style="shape=partialRectangle;connectable=0;fillColor=none;top=0;left=0;bottom=0;right=0;editable=1;overflow=hidden;whiteSpace=wrap;html=1;" vertex="1" parent="zl25aqcJ3N6k3by6cPEg-51">
          <mxGeometry width="30" height="30" as="geometry">
            <mxRectangle width="30" height="30" as="alternateBounds" />
          </mxGeometry>
        </mxCell>
        <mxCell id="zl25aqcJ3N6k3by6cPEg-53" value="link: string" style="shape=partialRectangle;connectable=0;fillColor=none;top=0;left=0;bottom=0;right=0;align=left;spacingLeft=6;overflow=hidden;whiteSpace=wrap;html=1;" vertex="1" parent="zl25aqcJ3N6k3by6cPEg-51">
          <mxGeometry x="30" width="230" height="30" as="geometry">
            <mxRectangle width="230" height="30" as="alternateBounds" />
          </mxGeometry>
        </mxCell>
        <mxCell id="zl25aqcJ3N6k3by6cPEg-54" value="" style="shape=tableRow;horizontal=0;startSize=0;swimlaneHead=0;swimlaneBody=0;fillColor=none;collapsible=0;dropTarget=0;points=[[0,0.5],[1,0.5]];portConstraint=eastwest;top=0;left=0;right=0;bottom=0;" vertex="1" parent="zl25aqcJ3N6k3by6cPEg-44">
          <mxGeometry y="120" width="260" height="40" as="geometry" />
        </mxCell>
        <mxCell id="zl25aqcJ3N6k3by6cPEg-55" value="" style="shape=partialRectangle;connectable=0;fillColor=none;top=0;left=0;bottom=0;right=0;editable=1;overflow=hidden;whiteSpace=wrap;html=1;" vertex="1" parent="zl25aqcJ3N6k3by6cPEg-54">
          <mxGeometry width="30" height="40" as="geometry">
            <mxRectangle width="30" height="40" as="alternateBounds" />
          </mxGeometry>
        </mxCell>
        <mxCell id="zl25aqcJ3N6k3by6cPEg-56" value="checklist: array[string]" style="shape=partialRectangle;connectable=0;fillColor=none;top=0;left=0;bottom=0;right=0;align=left;spacingLeft=6;overflow=hidden;whiteSpace=wrap;html=1;" vertex="1" parent="zl25aqcJ3N6k3by6cPEg-54">
          <mxGeometry x="30" width="230" height="40" as="geometry">
            <mxRectangle width="230" height="40" as="alternateBounds" />
          </mxGeometry>
        </mxCell>
        <mxCell id="zl25aqcJ3N6k3by6cPEg-61" value="StudyFlow ER Diagram" style="text;strokeColor=none;fillColor=none;spacingLeft=4;spacingRight=4;overflow=hidden;rotatable=0;points=[[0,0.5],[1,0.5]];portConstraint=eastwest;fontSize=12;whiteSpace=wrap;html=1;align=center;" vertex="1" parent="1">
          <mxGeometry x="640" width="180" height="30" as="geometry" />
        </mxCell>
        <mxCell id="zl25aqcJ3N6k3by6cPEg-62" value="Item" style="shape=table;startSize=20;container=1;collapsible=1;childLayout=tableLayout;fixedRows=1;rowLines=0;fontStyle=1;align=center;resizeLast=1;" vertex="1" parent="1">
          <mxGeometry x="294.5" y="230" width="255.5" height="170" as="geometry" />
        </mxCell>
        <mxCell id="zl25aqcJ3N6k3by6cPEg-63" value="" style="shape=partialRectangle;collapsible=0;dropTarget=0;pointerEvents=0;fillColor=none;points=[[0,0.5],[1,0.5]];portConstraint=eastwest;top=0;left=0;right=0;bottom=1;" vertex="1" parent="zl25aqcJ3N6k3by6cPEg-62">
          <mxGeometry y="20" width="255.5" height="20" as="geometry" />
        </mxCell>
        <mxCell id="zl25aqcJ3N6k3by6cPEg-64" value="" style="shape=partialRectangle;overflow=hidden;connectable=0;fillColor=none;top=0;left=0;bottom=0;right=0;fontStyle=1;" vertex="1" parent="zl25aqcJ3N6k3by6cPEg-63">
          <mxGeometry width="30" height="20" as="geometry">
            <mxRectangle width="30" height="20" as="alternateBounds" />
          </mxGeometry>
        </mxCell>
        <mxCell id="zl25aqcJ3N6k3by6cPEg-65" value="" style="shape=partialRectangle;overflow=hidden;connectable=0;fillColor=none;top=0;left=0;bottom=0;right=0;align=left;spacingLeft=6;fontStyle=5;" vertex="1" parent="zl25aqcJ3N6k3by6cPEg-63">
          <mxGeometry x="30" width="225.5" height="20" as="geometry">
            <mxRectangle width="225.5" height="20" as="alternateBounds" />
          </mxGeometry>
        </mxCell>
        <mxCell id="zl25aqcJ3N6k3by6cPEg-66" value="" style="shape=partialRectangle;collapsible=0;dropTarget=0;pointerEvents=0;fillColor=none;points=[[0,0.5],[1,0.5]];portConstraint=eastwest;top=0;left=0;right=0;bottom=0;" vertex="1" parent="zl25aqcJ3N6k3by6cPEg-62">
          <mxGeometry y="40" width="255.5" height="130" as="geometry" />
        </mxCell>
        <mxCell id="zl25aqcJ3N6k3by6cPEg-67" value="" style="shape=partialRectangle;overflow=hidden;connectable=0;fillColor=none;top=0;left=0;bottom=0;right=0;" vertex="1" parent="zl25aqcJ3N6k3by6cPEg-66">
          <mxGeometry width="30" height="130" as="geometry">
            <mxRectangle width="30" height="130" as="alternateBounds" />
          </mxGeometry>
        </mxCell>
        <mxCell id="zl25aqcJ3N6k3by6cPEg-68" value="item_id: integer &#xa;dateOfCreation; TimeStamp&#xa;order: integer&#xa;status: string&#xa;note_id: integer&#xa;name: string&#xa;description: string" style="shape=partialRectangle;overflow=hidden;connectable=0;fillColor=none;top=0;left=0;bottom=0;right=0;align=left;spacingLeft=6;" vertex="1" parent="zl25aqcJ3N6k3by6cPEg-66">
          <mxGeometry x="30" width="225.5" height="130" as="geometry">
            <mxRectangle width="225.5" height="130" as="alternateBounds" />
          </mxGeometry>
        </mxCell>
        <mxCell id="zl25aqcJ3N6k3by6cPEg-71" value="1 Mandatory to Many&amp;nbsp;&lt;div&gt;Mandatory&lt;/div&gt;" style="text;html=1;align=center;verticalAlign=middle;whiteSpace=wrap;rounded=0;" vertex="1" parent="1">
          <mxGeometry x="440" y="590" width="120" height="30" as="geometry" />
        </mxCell>
        <mxCell id="zl25aqcJ3N6k3by6cPEg-72" value="1&amp;nbsp; to Many&amp;nbsp;&lt;div&gt;&lt;br&gt;&lt;/div&gt;" style="text;html=1;align=center;verticalAlign=middle;whiteSpace=wrap;rounded=0;" vertex="1" parent="1">
          <mxGeometry x="440" y="430" width="120" height="20" as="geometry" />
        </mxCell>
        <mxCell id="zl25aqcJ3N6k3by6cPEg-73" value="Many Mandatory to Many&amp;nbsp;&lt;div&gt;Mandatory&lt;/div&gt;" style="text;html=1;align=center;verticalAlign=middle;whiteSpace=wrap;rounded=0;" vertex="1" parent="1">
          <mxGeometry x="440" y="180" width="160" height="30" as="geometry" />
        </mxCell>
        <mxCell id="zl25aqcJ3N6k3by6cPEg-82" value="" style="fontSize=12;html=1;endArrow=ERoneToMany;rounded=0;" edge="1" parent="1">
          <mxGeometry width="100" height="100" relative="1" as="geometry">
            <mxPoint x="419.16" y="470" as="sourcePoint" />
            <mxPoint x="419.16" y="400" as="targetPoint" />
          </mxGeometry>
        </mxCell>
        <mxCell id="zl25aqcJ3N6k3by6cPEg-85" value="" style="fontSize=12;html=1;endArrow=ERzeroToMany;startArrow=ERmandOne;rounded=0;" edge="1" parent="1">
          <mxGeometry width="100" height="100" relative="1" as="geometry">
            <mxPoint x="419.16" y="640" as="sourcePoint" />
            <mxPoint x="419.16" y="570" as="targetPoint" />
          </mxGeometry>
        </mxCell>
      </root>
    </mxGraphModel>
  </diagram>
</mxfile>
